<svg width="800" height="500" viewBox="0 0 800 500" fill="none" xmlns="http://www.w3.org/2000/svg">
<rect width="800" height="500" fill="white"/>
<circle cx="533.5" cy="249.5" r="219" fill="#D9D9D9" fill-opacity="0.11" stroke="black"/>
<circle cx="265.5" cy="249.5" r="219" fill="#D9D9D9" fill-opacity="0.11" stroke="black"/>
<path d="M348.923 220.504H341.627V229H336.859V207.88H341.627V216.328H348.923V207.88H353.675V229H348.923V220.504ZM357.473 229V215.864H362.337V229H357.473ZM359.969 213.16C359.201 213.16 358.55 212.893 358.017 212.36C357.483 211.816 357.217 211.171 357.217 210.424C357.217 209.677 357.483 209.032 358.017 208.488C358.561 207.933 359.211 207.656 359.969 207.656C360.47 207.656 360.929 207.784 361.345 208.04C361.761 208.285 362.097 208.616 362.353 209.032C362.609 209.448 362.737 209.912 362.737 210.424C362.737 211.171 362.465 211.816 361.921 212.36C361.377 212.893 360.726 213.16 359.969 213.16ZM369.56 223.464C369.592 223.933 369.741 224.349 370.008 224.712C370.274 225.075 370.642 225.363 371.112 225.576C371.592 225.779 372.157 225.88 372.808 225.88C373.426 225.88 373.981 225.816 374.472 225.688C374.973 225.56 375.405 225.4 375.768 225.208C376.141 225.016 376.429 224.819 376.632 224.616L378.52 227.624C378.253 227.912 377.874 228.195 377.384 228.472C376.904 228.739 376.269 228.957 375.48 229.128C374.69 229.299 373.693 229.384 372.488 229.384C371.037 229.384 369.746 229.112 368.616 228.568C367.485 228.024 366.594 227.224 365.944 226.168C365.293 225.112 364.968 223.821 364.968 222.296C364.968 221.016 365.245 219.864 365.8 218.84C366.365 217.805 367.181 216.989 368.248 216.392C369.314 215.784 370.6 215.48 372.104 215.48C373.533 215.48 374.77 215.741 375.816 216.264C376.872 216.787 377.682 217.565 378.248 218.6C378.824 219.624 379.112 220.904 379.112 222.44C379.112 222.525 379.106 222.696 379.096 222.952C379.096 223.208 379.085 223.379 379.064 223.464H369.56ZM374.536 220.92C374.525 220.579 374.434 220.243 374.264 219.912C374.093 219.571 373.837 219.293 373.496 219.08C373.154 218.856 372.717 218.744 372.184 218.744C371.65 218.744 371.197 218.851 370.824 219.064C370.461 219.267 370.184 219.533 369.992 219.864C369.8 220.195 369.693 220.547 369.672 220.92H374.536ZM386.073 229H381.209V215.864H386.073V217.896H385.993C386.079 217.651 386.287 217.341 386.617 216.968C386.948 216.584 387.412 216.243 388.009 215.944C388.607 215.635 389.337 215.48 390.201 215.48C390.809 215.48 391.369 215.576 391.881 215.768C392.393 215.949 392.767 216.125 393.001 216.296L391.113 220.248C390.964 220.067 390.697 219.88 390.313 219.688C389.94 219.485 389.471 219.384 388.905 219.384C388.255 219.384 387.716 219.549 387.289 219.88C386.873 220.211 386.564 220.611 386.361 221.08C386.169 221.549 386.073 221.992 386.073 222.408V229ZM407.646 229H402.766V206.984H407.646V229ZM410.942 229V215.864H415.806V229H410.942ZM413.438 213.16C412.67 213.16 412.019 212.893 411.486 212.36C410.952 211.816 410.686 211.171 410.686 210.424C410.686 209.677 410.952 209.032 411.486 208.488C412.03 207.933 412.68 207.656 413.438 207.656C413.939 207.656 414.398 207.784 414.814 208.04C415.23 208.285 415.566 208.616 415.822 209.032C416.078 209.448 416.206 209.912 416.206 210.424C416.206 211.171 415.934 211.816 415.39 212.36C414.846 212.893 414.195 213.16 413.438 213.16ZM423.029 223.464C423.061 223.933 423.21 224.349 423.477 224.712C423.743 225.075 424.111 225.363 424.581 225.576C425.061 225.779 425.626 225.88 426.277 225.88C426.895 225.88 427.45 225.816 427.941 225.688C428.442 225.56 428.874 225.4 429.237 225.208C429.61 225.016 429.898 224.819 430.101 224.616L431.989 227.624C431.722 227.912 431.343 228.195 430.853 228.472C430.373 228.739 429.738 228.957 428.949 229.128C428.159 229.299 427.162 229.384 425.957 229.384C424.506 229.384 423.215 229.112 422.085 228.568C420.954 228.024 420.063 227.224 419.413 226.168C418.762 225.112 418.437 223.821 418.437 222.296C418.437 221.016 418.714 219.864 419.269 218.84C419.834 217.805 420.65 216.989 421.717 216.392C422.783 215.784 424.069 215.48 425.573 215.48C427.002 215.48 428.239 215.741 429.285 216.264C430.341 216.787 431.151 217.565 431.717 218.6C432.293 219.624 432.581 220.904 432.581 222.44C432.581 222.525 432.575 222.696 432.565 222.952C432.565 223.208 432.554 223.379 432.533 223.464H423.029ZM428.005 220.92C427.994 220.579 427.903 220.243 427.733 219.912C427.562 219.571 427.306 219.293 426.965 219.08C426.623 218.856 426.186 218.744 425.653 218.744C425.119 218.744 424.666 218.851 424.293 219.064C423.93 219.267 423.653 219.533 423.461 219.864C423.269 220.195 423.162 220.547 423.141 220.92H428.005ZM441.99 236.024C441.073 236.024 440.161 235.944 439.254 235.784C438.358 235.624 437.521 235.352 436.742 234.968C435.963 234.584 435.307 234.056 434.774 233.384L437.622 230.424C437.867 230.712 438.166 230.995 438.518 231.272C438.881 231.549 439.323 231.779 439.846 231.96C440.379 232.141 441.025 232.232 441.782 232.232C442.486 232.232 443.099 232.109 443.622 231.864C444.145 231.619 444.55 231.261 444.838 230.792C445.137 230.323 445.286 229.752 445.286 229.08V228.76H450.07V229.368C450.07 230.819 449.707 232.04 448.982 233.032C448.267 234.024 447.302 234.771 446.086 235.272C444.87 235.773 443.505 236.024 441.99 236.024ZM445.286 229V226.872C445.19 227.085 444.945 227.395 444.55 227.8C444.166 228.205 443.654 228.573 443.014 228.904C442.374 229.224 441.627 229.384 440.774 229.384C439.494 229.384 438.374 229.075 437.414 228.456C436.454 227.827 435.707 226.989 435.174 225.944C434.641 224.888 434.374 223.72 434.374 222.44C434.374 221.16 434.641 219.997 435.174 218.952C435.707 217.896 436.454 217.053 437.414 216.424C438.374 215.795 439.494 215.48 440.774 215.48C441.595 215.48 442.315 215.613 442.934 215.88C443.553 216.136 444.054 216.445 444.438 216.808C444.822 217.16 445.089 217.485 445.238 217.784V215.864H450.07V229H445.286ZM439.142 222.44C439.142 223.037 439.281 223.576 439.558 224.056C439.835 224.525 440.203 224.893 440.662 225.16C441.131 225.427 441.649 225.56 442.214 225.56C442.801 225.56 443.318 225.427 443.766 225.16C444.214 224.893 444.566 224.525 444.822 224.056C445.089 223.576 445.222 223.037 445.222 222.44C445.222 221.843 445.089 221.309 444.822 220.84C444.566 220.36 444.214 219.987 443.766 219.72C443.318 219.443 442.801 219.304 442.214 219.304C441.649 219.304 441.131 219.443 440.662 219.72C440.203 219.987 439.835 220.36 439.558 220.84C439.281 221.309 439.142 221.843 439.142 222.44ZM452.068 215.864H454.308V210.472H459.124V215.864H462.068V219.864H459.124V223.528C459.124 224.072 459.204 224.515 459.364 224.856C459.524 225.187 459.817 225.352 460.244 225.352C460.532 225.352 460.777 225.288 460.98 225.16C461.182 225.032 461.305 224.947 461.348 224.904L463.012 228.36C462.937 228.424 462.702 228.541 462.308 228.712C461.924 228.883 461.433 229.037 460.836 229.176C460.238 229.315 459.572 229.384 458.836 229.384C457.524 229.384 456.441 229.016 455.588 228.28C454.734 227.533 454.308 226.387 454.308 224.84V219.864H452.068V215.864ZM342.289 258.384C341.019 258.384 339.915 258.075 338.977 257.456C338.038 256.827 337.307 255.989 336.785 254.944C336.273 253.888 336.017 252.72 336.017 251.44C336.017 250.16 336.273 248.997 336.785 247.952C337.307 246.896 338.038 246.053 338.977 245.424C339.915 244.795 341.019 244.48 342.289 244.48C343.131 244.48 343.878 244.613 344.529 244.88C345.179 245.136 345.707 245.445 346.113 245.808C346.518 246.16 346.763 246.485 346.849 246.784V235.984H351.713V258H346.897V255.872C346.694 256.267 346.363 256.661 345.905 257.056C345.446 257.44 344.907 257.755 344.289 258C343.67 258.256 343.003 258.384 342.289 258.384ZM343.777 254.56C344.363 254.56 344.886 254.427 345.345 254.16C345.814 253.893 346.182 253.525 346.449 253.056C346.715 252.576 346.849 252.037 346.849 251.44C346.849 250.843 346.715 250.309 346.449 249.84C346.182 249.36 345.814 248.987 345.345 248.72C344.886 248.443 344.363 248.304 343.777 248.304C343.211 248.304 342.699 248.443 342.241 248.72C341.793 248.987 341.435 249.36 341.169 249.84C340.913 250.309 340.785 250.843 340.785 251.44C340.785 252.037 340.913 252.576 341.169 253.056C341.435 253.525 341.793 253.893 342.241 254.16C342.699 254.427 343.211 254.56 343.777 254.56ZM358.404 252.464C358.436 252.933 358.585 253.349 358.852 253.712C359.118 254.075 359.486 254.363 359.956 254.576C360.436 254.779 361.001 254.88 361.652 254.88C362.27 254.88 362.825 254.816 363.316 254.688C363.817 254.56 364.249 254.4 364.612 254.208C364.985 254.016 365.273 253.819 365.476 253.616L367.364 256.624C367.097 256.912 366.718 257.195 366.228 257.472C365.748 257.739 365.113 257.957 364.324 258.128C363.534 258.299 362.537 258.384 361.332 258.384C359.881 258.384 358.59 258.112 357.46 257.568C356.329 257.024 355.438 256.224 354.788 255.168C354.137 254.112 353.812 252.821 353.812 251.296C353.812 250.016 354.089 248.864 354.644 247.84C355.209 246.805 356.025 245.989 357.092 245.392C358.158 244.784 359.444 244.48 360.948 244.48C362.377 244.48 363.614 244.741 364.66 245.264C365.716 245.787 366.526 246.565 367.092 247.6C367.668 248.624 367.956 249.904 367.956 251.44C367.956 251.525 367.95 251.696 367.94 251.952C367.94 252.208 367.929 252.379 367.908 252.464H358.404ZM363.38 249.92C363.369 249.579 363.278 249.243 363.108 248.912C362.937 248.571 362.681 248.293 362.34 248.08C361.998 247.856 361.561 247.744 361.028 247.744C360.494 247.744 360.041 247.851 359.668 248.064C359.305 248.267 359.028 248.533 358.836 248.864C358.644 249.195 358.537 249.547 358.516 249.92H363.38ZM374.917 258H370.053V244.864H374.917V246.896H374.837C374.922 246.651 375.13 246.341 375.461 245.968C375.792 245.584 376.256 245.243 376.853 244.944C377.45 244.635 378.181 244.48 379.045 244.48C379.653 244.48 380.213 244.576 380.725 244.768C381.237 244.949 381.61 245.125 381.845 245.296L379.957 249.248C379.808 249.067 379.541 248.88 379.157 248.688C378.784 248.485 378.314 248.384 377.749 248.384C377.098 248.384 376.56 248.549 376.133 248.88C375.717 249.211 375.408 249.611 375.205 250.08C375.013 250.549 374.917 250.992 374.917 251.408V258ZM403.673 249.504H396.377V258H391.609V236.88H396.377V245.328H403.673V236.88H408.425V258H403.673V249.504ZM416.671 250.944C416.671 251.989 416.868 252.827 417.263 253.456C417.657 254.075 418.319 254.384 419.247 254.384C420.196 254.384 420.863 254.075 421.247 253.456C421.641 252.827 421.839 251.989 421.839 250.944V244.864H426.639V251.456C426.639 252.864 426.345 254.091 425.759 255.136C425.183 256.171 424.345 256.971 423.247 257.536C422.148 258.101 420.815 258.384 419.247 258.384C417.689 258.384 416.361 258.101 415.263 257.536C414.164 256.971 413.327 256.171 412.751 255.136C412.175 254.091 411.887 252.864 411.887 251.456V244.864H416.671V250.944ZM438.634 244.48C439.551 244.48 440.447 244.667 441.322 245.04C442.197 245.413 442.917 246.005 443.482 246.816C444.047 247.616 444.33 248.672 444.33 249.984V258H439.45V250.784C439.45 249.845 439.226 249.141 438.778 248.672C438.33 248.192 437.743 247.952 437.018 247.952C436.538 247.952 436.085 248.08 435.658 248.336C435.242 248.581 434.901 248.933 434.634 249.392C434.378 249.84 434.25 250.357 434.25 250.944V258H429.386V244.864H434.25V246.8C434.378 246.448 434.645 246.096 435.05 245.744C435.466 245.381 435.983 245.083 436.602 244.848C437.231 244.603 437.909 244.48 438.634 244.48ZM452.789 258.384C451.519 258.384 450.415 258.075 449.477 257.456C448.538 256.827 447.807 255.989 447.285 254.944C446.773 253.888 446.517 252.72 446.517 251.44C446.517 250.16 446.773 248.997 447.285 247.952C447.807 246.896 448.538 246.053 449.477 245.424C450.415 244.795 451.519 244.48 452.789 244.48C453.631 244.48 454.378 244.613 455.029 244.88C455.679 245.136 456.207 245.445 456.613 245.808C457.018 246.16 457.263 246.485 457.349 246.784V235.984H462.213V258H457.397V255.872C457.194 256.267 456.863 256.661 456.405 257.056C455.946 257.44 455.407 257.755 454.789 258C454.17 258.256 453.503 258.384 452.789 258.384ZM454.277 254.56C454.863 254.56 455.386 254.427 455.845 254.16C456.314 253.893 456.682 253.525 456.949 253.056C457.215 252.576 457.349 252.037 457.349 251.44C457.349 250.843 457.215 250.309 456.949 249.84C456.682 249.36 456.314 248.987 455.845 248.72C455.386 248.443 454.863 248.304 454.277 248.304C453.711 248.304 453.199 248.443 452.741 248.72C452.293 248.987 451.935 249.36 451.669 249.84C451.413 250.309 451.285 250.843 451.285 251.44C451.285 252.037 451.413 252.576 451.669 253.056C451.935 253.525 452.293 253.893 452.741 254.16C453.199 254.427 453.711 254.56 454.277 254.56ZM333.92 287V264.984H338.784V275.784C338.88 275.485 339.126 275.16 339.52 274.808C339.926 274.445 340.454 274.136 341.104 273.88C341.766 273.613 342.512 273.48 343.344 273.48C344.624 273.48 345.734 273.795 346.672 274.424C347.611 275.053 348.336 275.896 348.848 276.952C349.36 277.997 349.616 279.16 349.616 280.44C349.616 281.72 349.36 282.888 348.848 283.944C348.336 284.989 347.611 285.827 346.672 286.456C345.734 287.075 344.624 287.384 343.344 287.384C342.64 287.384 341.974 287.256 341.344 287C340.726 286.755 340.187 286.44 339.728 286.056C339.28 285.661 338.95 285.267 338.736 284.872V287H333.92ZM344.848 280.44C344.848 279.843 344.715 279.309 344.448 278.84C344.192 278.36 343.835 277.987 343.376 277.72C342.928 277.443 342.422 277.304 341.856 277.304C341.27 277.304 340.742 277.443 340.272 277.72C339.814 277.987 339.451 278.36 339.184 278.84C338.918 279.309 338.784 279.843 338.784 280.44C338.784 281.037 338.918 281.576 339.184 282.056C339.451 282.525 339.814 282.893 340.272 283.16C340.742 283.427 341.27 283.56 341.856 283.56C342.422 283.56 342.928 283.427 343.376 283.16C343.835 282.893 344.192 282.525 344.448 282.056C344.715 281.576 344.848 281.037 344.848 280.44ZM355.747 281.464C355.779 281.933 355.929 282.349 356.195 282.712C356.462 283.075 356.83 283.363 357.299 283.576C357.779 283.779 358.345 283.88 358.995 283.88C359.614 283.88 360.169 283.816 360.659 283.688C361.161 283.56 361.593 283.4 361.955 283.208C362.329 283.016 362.617 282.819 362.819 282.616L364.707 285.624C364.441 285.912 364.062 286.195 363.571 286.472C363.091 286.739 362.457 286.957 361.667 287.128C360.878 287.299 359.881 287.384 358.675 287.384C357.225 287.384 355.934 287.112 354.803 286.568C353.673 286.024 352.782 285.224 352.131 284.168C351.481 283.112 351.155 281.821 351.155 280.296C351.155 279.016 351.433 277.864 351.987 276.84C352.553 275.805 353.369 274.989 354.435 274.392C355.502 273.784 356.787 273.48 358.291 273.48C359.721 273.48 360.958 273.741 362.003 274.264C363.059 274.787 363.87 275.565 364.435 276.6C365.011 277.624 365.299 278.904 365.299 280.44C365.299 280.525 365.294 280.696 365.283 280.952C365.283 281.208 365.273 281.379 365.251 281.464H355.747ZM360.723 278.92C360.713 278.579 360.622 278.243 360.451 277.912C360.281 277.571 360.025 277.293 359.683 277.08C359.342 276.856 358.905 276.744 358.371 276.744C357.838 276.744 357.385 276.851 357.011 277.064C356.649 277.267 356.371 277.533 356.179 277.864C355.987 278.195 355.881 278.547 355.859 278.92H360.723ZM374.709 294.024C373.791 294.024 372.879 293.944 371.973 293.784C371.077 293.624 370.239 293.352 369.461 292.968C368.682 292.584 368.026 292.056 367.493 291.384L370.341 288.424C370.586 288.712 370.885 288.995 371.237 289.272C371.599 289.549 372.042 289.779 372.565 289.96C373.098 290.141 373.743 290.232 374.501 290.232C375.205 290.232 375.818 290.109 376.341 289.864C376.863 289.619 377.269 289.261 377.557 288.792C377.855 288.323 378.005 287.752 378.005 287.08V286.76H382.789V287.368C382.789 288.819 382.426 290.04 381.701 291.032C380.986 292.024 380.021 292.771 378.805 293.272C377.589 293.773 376.223 294.024 374.709 294.024ZM378.005 287V284.872C377.909 285.085 377.663 285.395 377.269 285.8C376.885 286.205 376.373 286.573 375.733 286.904C375.093 287.224 374.346 287.384 373.493 287.384C372.213 287.384 371.093 287.075 370.133 286.456C369.173 285.827 368.426 284.989 367.893 283.944C367.359 282.888 367.093 281.72 367.093 280.44C367.093 279.16 367.359 277.997 367.893 276.952C368.426 275.896 369.173 275.053 370.133 274.424C371.093 273.795 372.213 273.48 373.493 273.48C374.314 273.48 375.034 273.613 375.653 273.88C376.271 274.136 376.773 274.445 377.157 274.808C377.541 275.16 377.807 275.485 377.957 275.784V273.864H382.789V287H378.005ZM371.861 280.44C371.861 281.037 371.999 281.576 372.277 282.056C372.554 282.525 372.922 282.893 373.381 283.16C373.85 283.427 374.367 283.56 374.933 283.56C375.519 283.56 376.037 283.427 376.485 283.16C376.933 282.893 377.285 282.525 377.541 282.056C377.807 281.576 377.941 281.037 377.941 280.44C377.941 279.843 377.807 279.309 377.541 278.84C377.285 278.36 376.933 277.987 376.485 277.72C376.037 277.443 375.519 277.304 374.933 277.304C374.367 277.304 373.85 277.443 373.381 277.72C372.922 277.987 372.554 278.36 372.277 278.84C371.999 279.309 371.861 279.843 371.861 280.44ZM390.355 287H385.491V273.864H390.355V275.896H390.275C390.36 275.651 390.568 275.341 390.899 274.968C391.229 274.584 391.693 274.243 392.291 273.944C392.888 273.635 393.619 273.48 394.483 273.48C395.091 273.48 395.651 273.576 396.163 273.768C396.675 273.949 397.048 274.125 397.283 274.296L395.395 278.248C395.245 278.067 394.979 277.88 394.595 277.688C394.221 277.485 393.752 277.384 393.187 277.384C392.536 277.384 391.997 277.549 391.571 277.88C391.155 278.211 390.845 278.611 390.643 279.08C390.451 279.549 390.355 279.992 390.355 280.408V287ZM408.442 287V284.872C408.346 285.085 408.101 285.395 407.706 285.8C407.322 286.205 406.81 286.573 406.17 286.904C405.53 287.224 404.784 287.384 403.93 287.384C402.65 287.384 401.53 287.075 400.57 286.456C399.61 285.827 398.864 284.989 398.33 283.944C397.797 282.888 397.53 281.72 397.53 280.44C397.53 279.16 397.797 277.997 398.33 276.952C398.864 275.896 399.61 275.053 400.57 274.424C401.53 273.795 402.65 273.48 403.93 273.48C404.752 273.48 405.472 273.613 406.09 273.88C406.709 274.136 407.21 274.445 407.594 274.808C407.978 275.16 408.245 275.485 408.394 275.784V273.864H413.226V287H408.442ZM402.298 280.44C402.298 281.037 402.437 281.576 402.714 282.056C402.992 282.525 403.36 282.893 403.818 283.16C404.288 283.427 404.805 283.56 405.37 283.56C405.957 283.56 406.474 283.427 406.922 283.16C407.37 282.893 407.722 282.525 407.978 282.056C408.245 281.576 408.378 281.037 408.378 280.44C408.378 279.843 408.245 279.309 407.978 278.84C407.722 278.36 407.37 277.987 406.922 277.72C406.474 277.443 405.957 277.304 405.37 277.304C404.805 277.304 404.288 277.443 403.818 277.72C403.36 277.987 402.992 278.36 402.714 278.84C402.437 279.309 402.298 279.843 402.298 280.44ZM416.233 287V264.984H421.097V275.784C421.193 275.485 421.438 275.16 421.833 274.808C422.238 274.445 422.766 274.136 423.417 273.88C424.078 273.613 424.825 273.48 425.657 273.48C426.937 273.48 428.046 273.795 428.985 274.424C429.923 275.053 430.649 275.896 431.161 276.952C431.673 277.997 431.929 279.16 431.929 280.44C431.929 281.72 431.673 282.888 431.161 283.944C430.649 284.989 429.923 285.827 428.985 286.456C428.046 287.075 426.937 287.384 425.657 287.384C424.953 287.384 424.286 287.256 423.657 287C423.038 286.755 422.499 286.44 422.041 286.056C421.593 285.661 421.262 285.267 421.049 284.872V287H416.233ZM427.161 280.44C427.161 279.843 427.027 279.309 426.761 278.84C426.505 278.36 426.147 277.987 425.689 277.72C425.241 277.443 424.734 277.304 424.169 277.304C423.582 277.304 423.054 277.443 422.585 277.72C422.126 277.987 421.763 278.36 421.497 278.84C421.23 279.309 421.097 279.843 421.097 280.44C421.097 281.037 421.23 281.576 421.497 282.056C421.763 282.525 422.126 282.893 422.585 283.16C423.054 283.427 423.582 283.56 424.169 283.56C424.734 283.56 425.241 283.427 425.689 283.16C426.147 282.893 426.505 282.525 426.761 282.056C427.027 281.576 427.161 281.037 427.161 280.44ZM438.06 281.464C438.092 281.933 438.241 282.349 438.508 282.712C438.774 283.075 439.142 283.363 439.612 283.576C440.092 283.779 440.657 283.88 441.308 283.88C441.926 283.88 442.481 283.816 442.972 283.688C443.473 283.56 443.905 283.4 444.268 283.208C444.641 283.016 444.929 282.819 445.132 282.616L447.02 285.624C446.753 285.912 446.374 286.195 445.884 286.472C445.404 286.739 444.769 286.957 443.98 287.128C443.19 287.299 442.193 287.384 440.988 287.384C439.537 287.384 438.246 287.112 437.116 286.568C435.985 286.024 435.094 285.224 434.444 284.168C433.793 283.112 433.468 281.821 433.468 280.296C433.468 279.016 433.745 277.864 434.3 276.84C434.865 275.805 435.681 274.989 436.748 274.392C437.814 273.784 439.1 273.48 440.604 273.48C442.033 273.48 443.27 273.741 444.316 274.264C445.372 274.787 446.182 275.565 446.748 276.6C447.324 277.624 447.612 278.904 447.612 280.44C447.612 280.525 447.606 280.696 447.596 280.952C447.596 281.208 447.585 281.379 447.564 281.464H438.06ZM443.036 278.92C443.025 278.579 442.934 278.243 442.764 277.912C442.593 277.571 442.337 277.293 441.996 277.08C441.654 276.856 441.217 276.744 440.684 276.744C440.15 276.744 439.697 276.851 439.324 277.064C438.961 277.267 438.684 277.533 438.492 277.864C438.3 278.195 438.193 278.547 438.172 278.92H443.036ZM459.165 273.48C460.083 273.48 460.979 273.667 461.853 274.04C462.728 274.413 463.448 275.005 464.013 275.816C464.579 276.616 464.861 277.672 464.861 278.984V287H459.981V279.784C459.981 278.845 459.757 278.141 459.309 277.672C458.861 277.192 458.275 276.952 457.549 276.952C457.069 276.952 456.616 277.08 456.189 277.336C455.773 277.581 455.432 277.933 455.165 278.392C454.909 278.84 454.781 279.357 454.781 279.944V287H449.917V273.864H454.781V275.8C454.909 275.448 455.176 275.096 455.581 274.744C455.997 274.381 456.515 274.083 457.133 273.848C457.763 273.603 458.44 273.48 459.165 273.48Z" fill="black"/>
<path d="M155.408 228.872C156.32 228.872 157.104 228.976 157.76 229.184C158.424 229.392 158.944 229.612 159.32 229.844C159.704 230.076 159.932 230.228 160.004 230.3L158.948 231.992C158.828 231.888 158.616 231.74 158.312 231.548C158.008 231.348 157.628 231.172 157.172 231.02C156.716 230.86 156.196 230.78 155.612 230.78C154.708 230.78 153.992 230.964 153.464 231.332C152.944 231.692 152.684 232.204 152.684 232.868C152.684 233.316 152.82 233.712 153.092 234.056C153.372 234.392 153.764 234.7 154.268 234.98C154.772 235.26 155.36 235.548 156.032 235.844C156.584 236.076 157.124 236.34 157.652 236.636C158.188 236.932 158.672 237.28 159.104 237.68C159.544 238.08 159.892 238.544 160.148 239.072C160.412 239.6 160.544 240.208 160.544 240.896C160.544 241.576 160.404 242.188 160.124 242.732C159.852 243.276 159.464 243.74 158.96 244.124C158.464 244.5 157.884 244.788 157.22 244.988C156.556 245.188 155.84 245.288 155.072 245.288C154.104 245.288 153.228 245.168 152.444 244.928C151.668 244.688 151.04 244.436 150.56 244.172C150.088 243.908 149.816 243.744 149.744 243.68L150.86 241.916C150.956 241.996 151.132 242.116 151.388 242.276C151.644 242.428 151.96 242.588 152.336 242.756C152.712 242.924 153.136 243.068 153.608 243.188C154.08 243.3 154.584 243.356 155.12 243.356C156.192 243.356 157.004 243.116 157.556 242.636C158.108 242.156 158.384 241.54 158.384 240.788C158.384 240.212 158.208 239.716 157.856 239.3C157.504 238.884 157.036 238.512 156.452 238.184C155.868 237.856 155.224 237.54 154.52 237.236C153.8 236.908 153.14 236.548 152.54 236.156C151.94 235.764 151.456 235.296 151.088 234.752C150.728 234.2 150.548 233.536 150.548 232.76C150.548 231.992 150.764 231.316 151.196 230.732C151.636 230.148 152.224 229.692 152.96 229.364C153.704 229.036 154.52 228.872 155.408 228.872ZM167.656 245.288C166.64 245.288 165.736 245.06 164.944 244.604C164.16 244.148 163.544 243.532 163.096 242.756C162.648 241.972 162.424 241.088 162.424 240.104C162.424 239.12 162.648 238.232 163.096 237.44C163.544 236.648 164.16 236.02 164.944 235.556C165.736 235.092 166.64 234.86 167.656 234.86C168.664 234.86 169.556 235.092 170.332 235.556C171.116 236.02 171.728 236.648 172.168 237.44C172.608 238.232 172.828 239.12 172.828 240.104C172.828 241.088 172.608 241.972 172.168 242.756C171.728 243.532 171.116 244.148 170.332 244.604C169.556 245.06 168.664 245.288 167.656 245.288ZM167.656 243.5C168.296 243.5 168.852 243.352 169.324 243.056C169.804 242.76 170.176 242.356 170.44 241.844C170.704 241.324 170.836 240.74 170.836 240.092C170.836 239.444 170.704 238.86 170.44 238.34C170.176 237.82 169.804 237.408 169.324 237.104C168.852 236.8 168.296 236.648 167.656 236.648C167.008 236.648 166.444 236.8 165.964 237.104C165.484 237.408 165.108 237.82 164.836 238.34C164.572 238.86 164.44 239.444 164.44 240.092C164.44 240.74 164.572 241.324 164.836 241.844C165.108 242.356 165.484 242.76 165.964 243.056C166.444 243.352 167.008 243.5 167.656 243.5ZM174.125 235.148H176.141V232.352C176.141 231.352 176.313 230.548 176.657 229.94C177.009 229.332 177.453 228.892 177.989 228.62C178.533 228.34 179.089 228.2 179.657 228.2C180.345 228.2 180.873 228.296 181.241 228.488C181.617 228.68 181.841 228.808 181.913 228.872L181.073 230.468C181.033 230.42 180.909 230.332 180.701 230.204C180.493 230.076 180.209 230.012 179.849 230.012C179.585 230.012 179.329 230.076 179.081 230.204C178.833 230.332 178.625 230.58 178.457 230.948C178.289 231.316 178.205 231.864 178.205 232.592V235.148H181.013V236.936H178.205V245H176.141V236.936H174.125V235.148ZM182.061 235.148H183.993V231.104H186.069V235.148H188.601V236.936H186.069V241.808C186.069 242.384 186.169 242.808 186.369 243.08C186.577 243.352 186.853 243.488 187.197 243.488C187.501 243.488 187.737 243.432 187.905 243.32C188.073 243.208 188.173 243.132 188.205 243.092L189.033 244.628C188.985 244.668 188.857 244.744 188.649 244.856C188.441 244.968 188.173 245.068 187.845 245.156C187.517 245.244 187.133 245.288 186.693 245.288C185.925 245.288 185.281 245.056 184.761 244.592C184.249 244.12 183.993 243.376 183.993 242.36V236.936H182.061V235.148ZM197.338 237.62L194.83 245H192.67L189.994 235.148H192.214L194.002 242.72L196.474 235.34H198.202L200.65 242.72L202.45 235.148H204.682L202.006 245H199.846L197.338 237.62ZM214.657 245V243.08C214.593 243.28 214.405 243.556 214.093 243.908C213.789 244.26 213.369 244.58 212.833 244.868C212.305 245.148 211.681 245.288 210.961 245.288C210.049 245.288 209.221 245.072 208.477 244.64C207.741 244.208 207.153 243.604 206.713 242.828C206.281 242.044 206.065 241.128 206.065 240.08C206.065 239.032 206.281 238.12 206.713 237.344C207.153 236.56 207.741 235.952 208.477 235.52C209.221 235.08 210.049 234.86 210.961 234.86C211.673 234.86 212.289 234.988 212.809 235.244C213.337 235.5 213.757 235.796 214.069 236.132C214.389 236.468 214.577 236.756 214.633 236.996V235.148H216.697V245H214.657ZM208.129 240.08C208.129 240.792 208.285 241.408 208.597 241.928C208.909 242.448 209.313 242.852 209.809 243.14C210.313 243.42 210.849 243.56 211.417 243.56C212.025 243.56 212.569 243.416 213.049 243.128C213.529 242.84 213.909 242.436 214.189 241.916C214.469 241.388 214.609 240.776 214.609 240.08C214.609 239.384 214.469 238.776 214.189 238.256C213.909 237.728 213.529 237.32 213.049 237.032C212.569 236.736 212.025 236.588 211.417 236.588C210.849 236.588 210.313 236.732 209.809 237.02C209.313 237.308 208.909 237.712 208.597 238.232C208.285 238.752 208.129 239.368 208.129 240.08ZM221.539 245H219.463V235.148H221.539V236.852H221.479C221.519 236.644 221.667 236.384 221.923 236.072C222.179 235.76 222.531 235.48 222.979 235.232C223.427 234.984 223.963 234.86 224.587 234.86C225.043 234.86 225.443 234.924 225.787 235.052C226.139 235.172 226.387 235.292 226.531 235.412L225.679 237.14C225.567 237.028 225.371 236.916 225.091 236.804C224.811 236.684 224.463 236.624 224.047 236.624C223.519 236.624 223.067 236.788 222.691 237.116C222.315 237.444 222.027 237.84 221.827 238.304C221.635 238.76 221.539 239.184 221.539 239.576V245ZM228.974 240.5C228.982 241.092 229.11 241.632 229.358 242.12C229.606 242.608 229.974 242.996 230.462 243.284C230.958 243.572 231.566 243.716 232.286 243.716C232.894 243.716 233.41 243.628 233.834 243.452C234.266 243.268 234.618 243.052 234.89 242.804C235.162 242.548 235.358 242.32 235.478 242.12L236.498 243.38C236.234 243.764 235.91 244.1 235.526 244.388C235.15 244.676 234.69 244.896 234.146 245.048C233.602 245.208 232.938 245.288 232.154 245.288C231.098 245.288 230.182 245.064 229.406 244.616C228.638 244.16 228.046 243.532 227.63 242.732C227.214 241.924 227.006 241 227.006 239.96C227.006 239 227.202 238.136 227.594 237.368C227.986 236.592 228.554 235.98 229.298 235.532C230.05 235.084 230.954 234.86 232.01 234.86C232.978 234.86 233.818 235.064 234.53 235.472C235.25 235.872 235.806 236.44 236.198 237.176C236.598 237.912 236.798 238.792 236.798 239.816C236.798 239.88 236.794 239.996 236.786 240.164C236.778 240.324 236.77 240.436 236.762 240.5H228.974ZM234.806 238.928C234.798 238.6 234.702 238.24 234.518 237.848C234.342 237.456 234.054 237.12 233.654 236.84C233.254 236.56 232.714 236.42 232.034 236.42C231.33 236.42 230.762 236.556 230.33 236.828C229.906 237.1 229.594 237.432 229.394 237.824C229.194 238.208 229.078 238.576 229.046 238.928H234.806ZM136.191 251.16H145.551V253.02H138.219V258.156H145.407V259.968H138.219V265.14H145.551V267H136.191V251.16ZM154.237 256.86C154.885 256.86 155.513 256.996 156.121 257.268C156.737 257.54 157.241 257.972 157.633 258.564C158.033 259.148 158.233 259.912 158.233 260.856V267H156.121V261.264C156.121 260.288 155.893 259.58 155.437 259.14C154.981 258.692 154.393 258.468 153.673 258.468C153.201 258.468 152.745 258.604 152.305 258.876C151.873 259.14 151.517 259.508 151.237 259.98C150.957 260.444 150.817 260.972 150.817 261.564V267H148.729V257.148H150.817V258.9C150.889 258.628 151.085 258.332 151.405 258.012C151.725 257.692 152.133 257.42 152.629 257.196C153.125 256.972 153.661 256.86 154.237 256.86ZM165.667 272.268C164.891 272.268 164.187 272.188 163.555 272.028C162.931 271.868 162.383 271.64 161.911 271.344C161.447 271.056 161.075 270.716 160.795 270.324L162.163 269.016C162.315 269.224 162.519 269.444 162.775 269.676C163.039 269.916 163.395 270.12 163.843 270.288C164.291 270.456 164.875 270.54 165.595 270.54C166.299 270.54 166.895 270.388 167.383 270.084C167.871 269.788 168.243 269.384 168.499 268.872C168.755 268.36 168.883 267.784 168.883 267.144V266.82H170.923V267.276C170.923 268.364 170.687 269.276 170.215 270.012C169.751 270.756 169.123 271.316 168.331 271.692C167.539 272.076 166.651 272.268 165.667 272.268ZM168.883 267V265.08C168.819 265.28 168.631 265.556 168.319 265.908C168.015 266.26 167.595 266.58 167.059 266.868C166.531 267.148 165.907 267.288 165.187 267.288C164.275 267.288 163.447 267.072 162.703 266.64C161.967 266.208 161.379 265.604 160.939 264.828C160.507 264.044 160.291 263.128 160.291 262.08C160.291 261.032 160.507 260.12 160.939 259.344C161.379 258.56 161.967 257.952 162.703 257.52C163.447 257.08 164.275 256.86 165.187 256.86C165.899 256.86 166.515 256.988 167.035 257.244C167.563 257.5 167.983 257.796 168.295 258.132C168.615 258.468 168.803 258.756 168.859 258.996V257.148H170.923V267H168.883ZM162.355 262.08C162.355 262.792 162.511 263.408 162.823 263.928C163.135 264.448 163.539 264.852 164.035 265.14C164.539 265.42 165.075 265.56 165.643 265.56C166.251 265.56 166.795 265.416 167.275 265.128C167.755 264.84 168.135 264.436 168.415 263.916C168.695 263.388 168.835 262.776 168.835 262.08C168.835 261.384 168.695 260.776 168.415 260.256C168.135 259.728 167.755 259.32 167.275 259.032C166.795 258.736 166.251 258.588 165.643 258.588C165.075 258.588 164.539 258.732 164.035 259.02C163.539 259.308 163.135 259.712 162.823 260.232C162.511 260.752 162.355 261.368 162.355 262.08ZM174.035 267V257.148H176.123V267H174.035ZM175.103 253.776C174.727 253.776 174.403 253.644 174.131 253.38C173.867 253.108 173.735 252.784 173.735 252.408C173.735 252.032 173.867 251.708 174.131 251.436C174.403 251.164 174.727 251.028 175.103 251.028C175.351 251.028 175.579 251.092 175.787 251.22C176.003 251.348 176.175 251.516 176.303 251.724C176.431 251.924 176.495 252.152 176.495 252.408C176.495 252.784 176.359 253.108 176.087 253.38C175.815 253.644 175.487 253.776 175.103 253.776ZM184.823 256.86C185.471 256.86 186.099 256.996 186.707 257.268C187.323 257.54 187.827 257.972 188.219 258.564C188.619 259.148 188.819 259.912 188.819 260.856V267H186.707V261.264C186.707 260.288 186.479 259.58 186.023 259.14C185.567 258.692 184.979 258.468 184.259 258.468C183.787 258.468 183.331 258.604 182.891 258.876C182.459 259.14 182.103 259.508 181.823 259.98C181.543 260.444 181.403 260.972 181.403 261.564V267H179.315V257.148H181.403V258.9C181.475 258.628 181.671 258.332 181.991 258.012C182.311 257.692 182.719 257.42 183.215 257.196C183.711 256.972 184.247 256.86 184.823 256.86ZM192.857 262.5C192.865 263.092 192.993 263.632 193.241 264.12C193.489 264.608 193.857 264.996 194.345 265.284C194.841 265.572 195.449 265.716 196.169 265.716C196.777 265.716 197.293 265.628 197.717 265.452C198.149 265.268 198.501 265.052 198.773 264.804C199.045 264.548 199.241 264.32 199.361 264.12L200.381 265.38C200.117 265.764 199.793 266.1 199.409 266.388C199.033 266.676 198.573 266.896 198.029 267.048C197.485 267.208 196.821 267.288 196.037 267.288C194.981 267.288 194.065 267.064 193.289 266.616C192.521 266.16 191.929 265.532 191.513 264.732C191.097 263.924 190.889 263 190.889 261.96C190.889 261 191.085 260.136 191.477 259.368C191.869 258.592 192.437 257.98 193.181 257.532C193.933 257.084 194.837 256.86 195.893 256.86C196.861 256.86 197.701 257.064 198.413 257.472C199.133 257.872 199.689 258.44 200.081 259.176C200.481 259.912 200.681 260.792 200.681 261.816C200.681 261.88 200.677 261.996 200.669 262.164C200.661 262.324 200.653 262.436 200.645 262.5H192.857ZM198.689 260.928C198.681 260.6 198.585 260.24 198.401 259.848C198.225 259.456 197.937 259.12 197.537 258.84C197.137 258.56 196.597 258.42 195.917 258.42C195.213 258.42 194.645 258.556 194.213 258.828C193.789 259.1 193.477 259.432 193.277 259.824C193.077 260.208 192.961 260.576 192.929 260.928H198.689ZM204.295 262.5C204.303 263.092 204.431 263.632 204.679 264.12C204.927 264.608 205.295 264.996 205.783 265.284C206.279 265.572 206.887 265.716 207.607 265.716C208.215 265.716 208.731 265.628 209.155 265.452C209.587 265.268 209.939 265.052 210.211 264.804C210.483 264.548 210.679 264.32 210.799 264.12L211.819 265.38C211.555 265.764 211.231 266.1 210.847 266.388C210.471 266.676 210.011 266.896 209.467 267.048C208.923 267.208 208.259 267.288 207.475 267.288C206.419 267.288 205.503 267.064 204.727 266.616C203.959 266.16 203.367 265.532 202.951 264.732C202.535 263.924 202.327 263 202.327 261.96C202.327 261 202.523 260.136 202.915 259.368C203.307 258.592 203.875 257.98 204.619 257.532C205.371 257.084 206.275 256.86 207.331 256.86C208.299 256.86 209.139 257.064 209.851 257.472C210.571 257.872 211.127 258.44 211.519 259.176C211.919 259.912 212.119 260.792 212.119 261.816C212.119 261.88 212.115 261.996 212.107 262.164C212.099 262.324 212.091 262.436 212.083 262.5H204.295ZM210.127 260.928C210.119 260.6 210.023 260.24 209.839 259.848C209.663 259.456 209.375 259.12 208.975 258.84C208.575 258.56 208.035 258.42 207.355 258.42C206.651 258.42 206.083 258.556 205.651 258.828C205.227 259.1 204.915 259.432 204.715 259.824C204.515 260.208 204.399 260.576 204.367 260.928H210.127ZM216.476 267H214.4V257.148H216.476V258.852H216.416C216.456 258.644 216.604 258.384 216.86 258.072C217.116 257.76 217.468 257.48 217.916 257.232C218.364 256.984 218.9 256.86 219.524 256.86C219.98 256.86 220.38 256.924 220.724 257.052C221.076 257.172 221.324 257.292 221.468 257.412L220.616 259.14C220.504 259.028 220.308 258.916 220.028 258.804C219.748 258.684 219.4 258.624 218.984 258.624C218.456 258.624 218.004 258.788 217.628 259.116C217.252 259.444 216.964 259.84 216.764 260.304C216.572 260.76 216.476 261.184 216.476 261.576V267ZM223.043 267V257.148H225.131V267H223.043ZM224.111 253.776C223.735 253.776 223.411 253.644 223.139 253.38C222.875 253.108 222.743 252.784 222.743 252.408C222.743 252.032 222.875 251.708 223.139 251.436C223.411 251.164 223.735 251.028 224.111 251.028C224.359 251.028 224.587 251.092 224.795 251.22C225.011 251.348 225.183 251.516 225.311 251.724C225.439 251.924 225.503 252.152 225.503 252.408C225.503 252.784 225.367 253.108 225.095 253.38C224.823 253.644 224.495 253.776 224.111 253.776ZM233.831 256.86C234.479 256.86 235.107 256.996 235.715 257.268C236.331 257.54 236.835 257.972 237.227 258.564C237.627 259.148 237.827 259.912 237.827 260.856V267H235.715V261.264C235.715 260.288 235.487 259.58 235.031 259.14C234.575 258.692 233.987 258.468 233.267 258.468C232.795 258.468 232.339 258.604 231.899 258.876C231.467 259.14 231.111 259.508 230.831 259.98C230.551 260.444 230.411 260.972 230.411 261.564V267H228.323V257.148H230.411V258.9C230.483 258.628 230.679 258.332 230.999 258.012C231.319 257.692 231.727 257.42 232.223 257.196C232.719 256.972 233.255 256.86 233.831 256.86ZM245.261 272.268C244.485 272.268 243.781 272.188 243.149 272.028C242.525 271.868 241.977 271.64 241.505 271.344C241.041 271.056 240.669 270.716 240.389 270.324L241.757 269.016C241.909 269.224 242.113 269.444 242.369 269.676C242.633 269.916 242.989 270.12 243.437 270.288C243.885 270.456 244.469 270.54 245.189 270.54C245.893 270.54 246.489 270.388 246.977 270.084C247.465 269.788 247.837 269.384 248.093 268.872C248.349 268.36 248.477 267.784 248.477 267.144V266.82H250.517V267.276C250.517 268.364 250.281 269.276 249.809 270.012C249.345 270.756 248.717 271.316 247.925 271.692C247.133 272.076 246.245 272.268 245.261 272.268ZM248.477 267V265.08C248.413 265.28 248.225 265.556 247.913 265.908C247.609 266.26 247.189 266.58 246.653 266.868C246.125 267.148 245.501 267.288 244.781 267.288C243.869 267.288 243.041 267.072 242.297 266.64C241.561 266.208 240.973 265.604 240.533 264.828C240.101 264.044 239.885 263.128 239.885 262.08C239.885 261.032 240.101 260.12 240.533 259.344C240.973 258.56 241.561 257.952 242.297 257.52C243.041 257.08 243.869 256.86 244.781 256.86C245.493 256.86 246.109 256.988 246.629 257.244C247.157 257.5 247.577 257.796 247.889 258.132C248.209 258.468 248.397 258.756 248.453 258.996V257.148H250.517V267H248.477ZM241.949 262.08C241.949 262.792 242.105 263.408 242.417 263.928C242.729 264.448 243.133 264.852 243.629 265.14C244.133 265.42 244.669 265.56 245.237 265.56C245.845 265.56 246.389 265.416 246.869 265.128C247.349 264.84 247.729 264.436 248.009 263.916C248.289 263.388 248.429 262.776 248.429 262.08C248.429 261.384 248.289 260.776 248.009 260.256C247.729 259.728 247.349 259.32 246.869 259.032C246.389 258.736 245.845 258.588 245.237 258.588C244.669 258.588 244.133 258.732 243.629 259.02C243.133 259.308 242.729 259.712 242.417 260.232C242.105 260.752 241.949 261.368 241.949 262.08Z" fill="black"/>
<path d="M589.393 229.16H591.529L597.385 245H595.189L593.821 241.184H587.101L585.709 245H583.513L589.393 229.16ZM587.761 239.336H593.173L590.485 231.68H590.449L587.761 239.336ZM603.722 250.268C602.946 250.268 602.242 250.188 601.61 250.028C600.986 249.868 600.438 249.64 599.966 249.344C599.502 249.056 599.13 248.716 598.85 248.324L600.218 247.016C600.37 247.224 600.574 247.444 600.83 247.676C601.094 247.916 601.45 248.12 601.898 248.288C602.346 248.456 602.93 248.54 603.65 248.54C604.354 248.54 604.95 248.388 605.438 248.084C605.926 247.788 606.298 247.384 606.554 246.872C606.81 246.36 606.938 245.784 606.938 245.144V244.82H608.978V245.276C608.978 246.364 608.742 247.276 608.27 248.012C607.806 248.756 607.178 249.316 606.386 249.692C605.594 250.076 604.706 250.268 603.722 250.268ZM606.938 245V243.08C606.874 243.28 606.686 243.556 606.374 243.908C606.07 244.26 605.65 244.58 605.114 244.868C604.586 245.148 603.962 245.288 603.242 245.288C602.33 245.288 601.502 245.072 600.758 244.64C600.022 244.208 599.434 243.604 598.994 242.828C598.562 242.044 598.346 241.128 598.346 240.08C598.346 239.032 598.562 238.12 598.994 237.344C599.434 236.56 600.022 235.952 600.758 235.52C601.502 235.08 602.33 234.86 603.242 234.86C603.954 234.86 604.57 234.988 605.09 235.244C605.618 235.5 606.038 235.796 606.35 236.132C606.67 236.468 606.858 236.756 606.914 236.996V235.148H608.978V245H606.938ZM600.41 240.08C600.41 240.792 600.566 241.408 600.878 241.928C601.19 242.448 601.594 242.852 602.09 243.14C602.594 243.42 603.13 243.56 603.698 243.56C604.306 243.56 604.85 243.416 605.33 243.128C605.81 242.84 606.19 242.436 606.47 241.916C606.75 241.388 606.89 240.776 606.89 240.08C606.89 239.384 606.75 238.776 606.47 238.256C606.19 237.728 605.81 237.32 605.33 237.032C604.85 236.736 604.306 236.588 603.698 236.588C603.13 236.588 602.594 236.732 602.09 237.02C601.594 237.308 601.19 237.712 600.878 238.232C600.566 238.752 600.41 239.368 600.41 240.08ZM612.09 245V235.148H614.178V245H612.09ZM613.158 231.776C612.782 231.776 612.458 231.644 612.186 231.38C611.922 231.108 611.79 230.784 611.79 230.408C611.79 230.032 611.922 229.708 612.186 229.436C612.458 229.164 612.782 229.028 613.158 229.028C613.406 229.028 613.634 229.092 613.842 229.22C614.058 229.348 614.23 229.516 614.358 229.724C614.486 229.924 614.55 230.152 614.55 230.408C614.55 230.784 614.414 231.108 614.142 231.38C613.87 231.644 613.542 231.776 613.158 231.776ZM619.541 245H617.441V228.488H619.541V245ZM623.857 240.5C623.865 241.092 623.993 241.632 624.241 242.12C624.489 242.608 624.857 242.996 625.345 243.284C625.841 243.572 626.449 243.716 627.169 243.716C627.777 243.716 628.293 243.628 628.717 243.452C629.149 243.268 629.501 243.052 629.773 242.804C630.045 242.548 630.241 242.32 630.361 242.12L631.381 243.38C631.117 243.764 630.793 244.1 630.409 244.388C630.033 244.676 629.573 244.896 629.029 245.048C628.485 245.208 627.821 245.288 627.037 245.288C625.981 245.288 625.065 245.064 624.289 244.616C623.521 244.16 622.929 243.532 622.513 242.732C622.097 241.924 621.889 241 621.889 239.96C621.889 239 622.085 238.136 622.477 237.368C622.869 236.592 623.437 235.98 624.181 235.532C624.933 235.084 625.837 234.86 626.893 234.86C627.861 234.86 628.701 235.064 629.413 235.472C630.133 235.872 630.689 236.44 631.081 237.176C631.481 237.912 631.681 238.792 631.681 239.816C631.681 239.88 631.677 239.996 631.669 240.164C631.661 240.324 631.653 240.436 631.645 240.5H623.857ZM629.689 238.928C629.681 238.6 629.585 238.24 629.401 237.848C629.225 237.456 628.937 237.12 628.537 236.84C628.137 236.56 627.597 236.42 626.917 236.42C626.213 236.42 625.645 236.556 625.213 236.828C624.789 237.1 624.477 237.432 624.277 237.824C624.077 238.208 623.961 238.576 623.929 238.928H629.689ZM570.559 265.26C571.543 265.26 572.395 265.124 573.115 264.852C573.843 264.58 574.359 264.316 574.663 264.06L575.563 265.824C575.203 266.144 574.575 266.468 573.679 266.796C572.791 267.124 571.723 267.288 570.475 267.288C569.307 267.288 568.223 267.08 567.223 266.664C566.223 266.248 565.347 265.668 564.595 264.924C563.851 264.18 563.267 263.312 562.843 262.32C562.427 261.328 562.219 260.256 562.219 259.104C562.219 257.952 562.427 256.876 562.843 255.876C563.259 254.876 563.839 254.004 564.583 253.26C565.335 252.508 566.211 251.924 567.211 251.508C568.219 251.084 569.307 250.872 570.475 250.872C571.723 250.872 572.791 251.036 573.679 251.364C574.575 251.692 575.203 252.016 575.563 252.336L574.663 254.1C574.359 253.836 573.843 253.572 573.115 253.308C572.395 253.036 571.543 252.9 570.559 252.9C569.663 252.9 568.843 253.052 568.099 253.356C567.355 253.66 566.707 254.092 566.155 254.652C565.611 255.204 565.187 255.856 564.883 256.608C564.587 257.36 564.439 258.18 564.439 259.068C564.439 259.964 564.587 260.792 564.883 261.552C565.187 262.304 565.611 262.96 566.155 263.52C566.707 264.072 567.355 264.5 568.099 264.804C568.843 265.108 569.663 265.26 570.559 265.26ZM582.531 267.288C581.515 267.288 580.611 267.06 579.819 266.604C579.035 266.148 578.419 265.532 577.971 264.756C577.523 263.972 577.299 263.088 577.299 262.104C577.299 261.12 577.523 260.232 577.971 259.44C578.419 258.648 579.035 258.02 579.819 257.556C580.611 257.092 581.515 256.86 582.531 256.86C583.539 256.86 584.431 257.092 585.207 257.556C585.991 258.02 586.603 258.648 587.043 259.44C587.483 260.232 587.703 261.12 587.703 262.104C587.703 263.088 587.483 263.972 587.043 264.756C586.603 265.532 585.991 266.148 585.207 266.604C584.431 267.06 583.539 267.288 582.531 267.288ZM582.531 265.5C583.171 265.5 583.727 265.352 584.199 265.056C584.679 264.76 585.051 264.356 585.315 263.844C585.579 263.324 585.711 262.74 585.711 262.092C585.711 261.444 585.579 260.86 585.315 260.34C585.051 259.82 584.679 259.408 584.199 259.104C583.727 258.8 583.171 258.648 582.531 258.648C581.883 258.648 581.319 258.8 580.839 259.104C580.359 259.408 579.983 259.82 579.711 260.34C579.447 260.86 579.315 261.444 579.315 262.092C579.315 262.74 579.447 263.324 579.711 263.844C579.983 264.356 580.359 264.76 580.839 265.056C581.319 265.352 581.883 265.5 582.531 265.5ZM597.938 267V265.08C597.874 265.28 597.686 265.556 597.374 265.908C597.07 266.26 596.65 266.58 596.114 266.868C595.586 267.148 594.962 267.288 594.242 267.288C593.33 267.288 592.502 267.072 591.758 266.64C591.022 266.208 590.434 265.604 589.994 264.828C589.562 264.044 589.346 263.128 589.346 262.08C589.346 261.032 589.562 260.12 589.994 259.344C590.434 258.56 591.022 257.952 591.758 257.52C592.502 257.08 593.33 256.86 594.242 256.86C594.954 256.86 595.57 256.988 596.09 257.244C596.618 257.5 597.038 257.796 597.35 258.132C597.67 258.468 597.858 258.756 597.914 258.996V257.148H599.978V267H597.938ZM591.41 262.08C591.41 262.792 591.566 263.408 591.878 263.928C592.19 264.448 592.594 264.852 593.09 265.14C593.594 265.42 594.13 265.56 594.698 265.56C595.306 265.56 595.85 265.416 596.33 265.128C596.81 264.84 597.19 264.436 597.47 263.916C597.75 263.388 597.89 262.776 597.89 262.08C597.89 261.384 597.75 260.776 597.47 260.256C597.19 259.728 596.81 259.32 596.33 259.032C595.85 258.736 595.306 258.588 594.698 258.588C594.13 258.588 593.594 258.732 593.09 259.02C592.594 259.308 592.19 259.712 591.878 260.232C591.566 260.752 591.41 261.368 591.41 262.08ZM607.412 265.56C608.036 265.56 608.54 265.46 608.924 265.26C609.308 265.06 609.548 264.916 609.644 264.828L610.664 266.328C610.584 266.4 610.392 266.516 610.088 266.676C609.792 266.828 609.408 266.968 608.936 267.096C608.472 267.224 607.944 267.288 607.352 267.288C606.448 267.288 605.608 267.088 604.832 266.688C604.056 266.28 603.428 265.688 602.948 264.912C602.476 264.136 602.24 263.188 602.24 262.068C602.24 260.94 602.476 259.992 602.948 259.224C603.428 258.448 604.056 257.86 604.832 257.46C605.608 257.06 606.448 256.86 607.352 256.86C607.936 256.86 608.456 256.932 608.912 257.076C609.368 257.212 609.744 257.364 610.04 257.532C610.336 257.7 610.532 257.828 610.628 257.916L609.596 259.416C609.532 259.352 609.408 259.256 609.224 259.128C609.048 258.992 608.808 258.868 608.504 258.756C608.2 258.644 607.836 258.588 607.412 258.588C606.9 258.588 606.4 258.728 605.912 259.008C605.432 259.28 605.036 259.676 604.724 260.196C604.412 260.716 604.256 261.34 604.256 262.068C604.256 262.796 604.412 263.424 604.724 263.952C605.036 264.472 605.432 264.872 605.912 265.152C606.4 265.424 606.9 265.56 607.412 265.56ZM618.309 256.86C618.957 256.86 619.585 256.996 620.193 257.268C620.809 257.54 621.313 257.972 621.705 258.564C622.105 259.148 622.305 259.912 622.305 260.856V267H620.193V261.264C620.193 260.288 619.969 259.58 619.521 259.14C619.081 258.692 618.501 258.468 617.781 258.468C617.301 258.468 616.841 258.604 616.401 258.876C615.961 259.14 615.597 259.508 615.309 259.98C615.029 260.444 614.889 260.972 614.889 261.564V267H612.777V250.488H614.889V258.9C614.961 258.628 615.153 258.332 615.465 258.012C615.785 257.692 616.193 257.42 616.689 257.196C617.185 256.972 617.725 256.86 618.309 256.86ZM625.355 267V257.148H627.443V267H625.355ZM626.423 253.776C626.047 253.776 625.723 253.644 625.451 253.38C625.187 253.108 625.055 252.784 625.055 252.408C625.055 252.032 625.187 251.708 625.451 251.436C625.723 251.164 626.047 251.028 626.423 251.028C626.671 251.028 626.899 251.092 627.107 251.22C627.323 251.348 627.495 251.516 627.623 251.724C627.751 251.924 627.815 252.152 627.815 252.408C627.815 252.784 627.679 253.108 627.407 253.38C627.135 253.644 626.807 253.776 626.423 253.776ZM636.143 256.86C636.791 256.86 637.419 256.996 638.027 257.268C638.643 257.54 639.147 257.972 639.539 258.564C639.939 259.148 640.139 259.912 640.139 260.856V267H638.027V261.264C638.027 260.288 637.799 259.58 637.343 259.14C636.887 258.692 636.299 258.468 635.579 258.468C635.107 258.468 634.651 258.604 634.211 258.876C633.779 259.14 633.423 259.508 633.143 259.98C632.863 260.444 632.723 260.972 632.723 261.564V267H630.635V257.148H632.723V258.9C632.795 258.628 632.991 258.332 633.311 258.012C633.631 257.692 634.039 257.42 634.535 257.196C635.031 256.972 635.567 256.86 636.143 256.86ZM647.573 272.268C646.797 272.268 646.093 272.188 645.461 272.028C644.837 271.868 644.289 271.64 643.817 271.344C643.353 271.056 642.981 270.716 642.701 270.324L644.069 269.016C644.221 269.224 644.425 269.444 644.681 269.676C644.945 269.916 645.301 270.12 645.749 270.288C646.197 270.456 646.781 270.54 647.501 270.54C648.205 270.54 648.801 270.388 649.289 270.084C649.777 269.788 650.149 269.384 650.405 268.872C650.661 268.36 650.789 267.784 650.789 267.144V266.82H652.829V267.276C652.829 268.364 652.593 269.276 652.121 270.012C651.657 270.756 651.029 271.316 650.237 271.692C649.445 272.076 648.557 272.268 647.573 272.268ZM650.789 267V265.08C650.725 265.28 650.537 265.556 650.225 265.908C649.921 266.26 649.501 266.58 648.965 266.868C648.437 267.148 647.813 267.288 647.093 267.288C646.181 267.288 645.353 267.072 644.609 266.64C643.873 266.208 643.285 265.604 642.845 264.828C642.413 264.044 642.197 263.128 642.197 262.08C642.197 261.032 642.413 260.12 642.845 259.344C643.285 258.56 643.873 257.952 644.609 257.52C645.353 257.08 646.181 256.86 647.093 256.86C647.805 256.86 648.421 256.988 648.941 257.244C649.469 257.5 649.889 257.796 650.201 258.132C650.521 258.468 650.709 258.756 650.765 258.996V257.148H652.829V267H650.789ZM644.261 262.08C644.261 262.792 644.417 263.408 644.729 263.928C645.041 264.448 645.445 264.852 645.941 265.14C646.445 265.42 646.981 265.56 647.549 265.56C648.157 265.56 648.701 265.416 649.181 265.128C649.661 264.84 650.041 264.436 650.321 263.916C650.601 263.388 650.741 262.776 650.741 262.08C650.741 261.384 650.601 260.776 650.321 260.256C650.041 259.728 649.661 259.32 649.181 259.032C648.701 258.736 648.157 258.588 647.549 258.588C646.981 258.588 646.445 258.732 645.941 259.02C645.445 259.308 645.041 259.712 644.729 260.232C644.417 260.752 644.261 261.368 644.261 262.08Z" fill="black"/>
</svg>
